<svg width="10" height="10" viewBox="0 0 10 10" fill="none" xmlns="http://www.w3.org/2000/svg">
<path fill-rule="evenodd" clip-rule="evenodd" d="M5 10C7.76142 10 10 7.76142 10 5C10 2.23858 7.76142 0 5 0C2.23858 0 0 2.23858 0 5C0 7.76142 2.23858 10 5 10ZM5.89268 7.56686L5.97252 7.24048C5.93119 7.25989 5.86456 7.28206 5.77319 7.30731C5.68157 7.33256 5.59912 7.34541 5.52665 7.34541C5.37229 7.34541 5.26362 7.32011 5.20052 7.26926C5.13789 7.2184 5.10665 7.12274 5.10665 6.98262C5.10665 6.9271 5.11607 6.84434 5.13579 6.73602C5.15489 6.62699 5.17686 6.53009 5.20129 6.44533L5.49935 5.39007C5.52855 5.29322 5.54857 5.18675 5.55933 5.07055C5.57034 4.9546 5.57546 4.87348 5.57546 4.82744C5.57546 4.60491 5.49746 4.42433 5.34141 4.28503C5.18536 4.14583 4.96315 4.07623 4.67517 4.07623C4.51492 4.07623 4.34551 4.10471 4.16621 4.1616C3.98691 4.21835 3.79946 4.28672 3.60337 4.36656L3.52332 4.6932C3.58175 4.67159 3.65135 4.64834 3.73278 4.62427C3.81386 4.6003 3.89339 4.58791 3.97078 4.58791C4.12877 4.58791 4.23519 4.61485 4.29096 4.6679C4.34674 4.72112 4.37475 4.81576 4.37475 4.95107C4.37475 5.02589 4.36589 5.10901 4.3475 5.19935C4.32937 5.29025 4.30674 5.38638 4.28011 5.48784L3.98076 6.54735C3.95413 6.65869 3.93467 6.7583 3.92243 6.84675C3.91029 6.93509 3.90445 7.02179 3.90445 7.10609C3.90445 7.32385 3.98491 7.50336 4.14577 7.64502C4.30664 7.78611 4.53218 7.85714 4.82215 7.85714C5.01098 7.85714 5.17671 7.83246 5.31934 7.78283C5.46181 7.73336 5.65315 7.6614 5.89268 7.56686ZM5.83957 3.28016C5.97882 3.15105 6.04811 2.99403 6.04811 2.81017C6.04811 2.62673 5.97892 2.4694 5.83957 2.33865C5.70068 2.20826 5.53326 2.14286 5.33752 2.14286C5.14116 2.14286 4.97308 2.2081 4.83286 2.33865C4.69263 2.4694 4.62237 2.62667 4.62237 2.81017C4.62237 2.99403 4.69263 3.151 4.83286 3.28016C4.97334 3.40973 5.14111 3.47457 5.33752 3.47457C5.53331 3.47457 5.70068 3.40973 5.83957 3.28016Z" fill="#CACFD8"/>
</svg>
